<svg width="414" height="63" viewBox="0 0 414 63" fill="none" xmlns="http://www.w3.org/2000/svg">
<path d="M0.398165 38.7318L3.39814 38.7204L3.29556 11.7206L0.295583 11.732L0.258197 1.89205L27.798 1.78741C32.798 1.76842 36.7018 2.77359 39.5095 4.80294C42.3173 6.83229 43.7284 9.74695 43.7428 13.5469C43.7518 15.9069 43.1994 17.909 42.0856 19.5533C40.9717 21.1575 39.6563 22.3825 38.1395 23.2283C36.6626 24.0339 35.2246 24.5794 33.8257 24.8647L33.828 25.4647C36.669 25.7339 39.2324 26.6242 41.5182 28.1355C43.804 29.6468 44.9543 32.3625 44.9692 36.2824C44.9851 40.4824 43.4168 43.5684 40.2643 45.5404C37.1116 47.4724 33.0153 48.4479 27.9754 48.4671L0.43555 48.5717L0.398165 38.7318ZM23.3728 21.4844C24.5328 21.48 25.3916 21.1767 25.9494 20.5746C26.5469 19.9323 26.8432 18.9512 26.8382 17.6312L26.83 15.4712C26.825 14.1512 26.5213 13.1923 25.919 12.5946C25.3566 11.9568 24.4954 11.64 23.3354 11.6444L20.0954 11.6568L20.1328 21.4967L23.3728 21.4844ZM23.858 38.6427C25.018 38.6382 25.8768 38.335 26.4346 37.7329C27.0321 37.0906 27.3284 36.1094 27.3234 34.7895L27.3133 32.1495C27.3083 30.8295 27.0047 29.8706 26.4024 29.2729C25.84 28.635 24.9788 28.3183 23.8188 28.3227L20.1588 28.3366L20.198 38.6566L23.858 38.6427ZM81.781 38.4226L81.8184 48.2625L65.9785 48.3227L65.963 44.2427C65.0879 45.5261 63.8522 46.6708 62.256 47.6768C60.6998 48.6827 58.7818 49.19 56.5018 49.1987C53.5018 49.2101 51.1388 48.4191 49.4127 46.8256C47.6866 45.2322 46.8181 42.9754 46.807 40.0555C46.7782 32.4955 53.1835 28.5912 66.0226 28.3424C65.8974 26.9828 65.3739 26.0648 64.4521 25.5883C63.5302 25.0718 61.9692 24.8178 59.7692 24.8261C57.9692 24.833 56.03 25.0403 53.9515 25.4482C51.9129 25.816 50.0348 26.3231 48.3173 26.9696L48.2753 15.9297C50.3933 15.4017 52.6917 14.9729 55.1705 14.6435C57.6492 14.3141 60.0686 14.1449 62.4286 14.1359C68.3886 14.1133 72.6526 15.1771 75.2208 17.3274C77.789 19.4776 79.0817 22.8127 79.0989 27.3327L79.141 38.4326L81.781 38.4226ZM65.9252 34.2828C64.1252 34.2896 62.7261 34.5349 61.7279 35.0187C60.7698 35.5024 60.2928 36.3042 60.2971 37.4242C60.2996 38.1042 60.5018 38.6634 60.9034 39.1019C61.345 39.5002 61.9457 39.6979 62.7057 39.6951C63.7457 39.6911 64.544 39.2481 65.1007 38.366C65.6573 37.4838 65.9326 36.2428 65.9265 34.6428L65.9252 34.2828ZM109.495 48.9974C107.455 49.0051 105.634 48.512 104.03 47.5181C102.466 46.524 101.182 45.3889 100.177 44.1127L100.192 48.1927L83.7524 48.2552L83.7151 38.4152L86.355 38.4052L86.2525 11.4054L83.6125 11.4154L83.5751 1.5755L100.015 1.51304L100.081 18.9129C101.076 17.6291 102.352 16.4843 103.908 15.4783C105.504 14.4723 107.322 13.9654 109.362 13.9576C113.442 13.9421 116.508 15.4505 118.56 18.4827C120.651 21.5148 121.708 25.8308 121.729 31.4308C121.75 37.0307 120.726 41.3546 118.658 44.4025C116.63 47.4502 113.575 48.9819 109.495 48.9974ZM103.635 38.3395C104.795 38.3351 105.654 38.0319 106.211 37.4298C106.809 36.7875 107.105 35.8063 107.1 34.4864L107.078 28.4864C107.072 27.1664 106.769 26.2076 106.167 25.6098C105.604 24.972 104.743 24.6552 103.583 24.6596C102.423 24.6641 101.544 24.9874 100.947 25.6297C100.389 26.2318 100.113 27.1929 100.118 28.5128L100.14 34.5128C100.145 35.8328 100.429 36.8117 100.992 37.4496C101.594 38.0473 102.475 38.344 103.635 38.3395ZM159.472 14.6072L159.509 24.4472L157.229 24.4558L149.448 45.3055C147.508 50.5529 145.283 54.4814 142.773 57.091C140.263 59.7405 136.948 61.0731 132.828 61.0888C131.148 61.0952 129.447 60.9216 127.726 60.5682C126.005 60.2547 124.443 59.8006 123.041 59.206L123 48.346L131.28 48.3146L131.282 48.9146C131.286 49.9146 131.808 50.4126 132.848 50.4086C133.768 50.4052 134.466 49.9625 134.943 49.0807L125.369 24.5769L123.089 24.5855L123.052 14.7456L140.872 14.6779L140.909 24.5178L138.869 24.5256L142.025 33.8737L144.869 24.5028L142.829 24.5105L142.792 14.6706L159.472 14.6072ZM179.459 38.0515L182.459 38.0401L182.357 11.1003L179.357 11.1117L179.319 1.21173L203.679 1.11918C210.359 1.0938 215.666 2.91365 219.6 6.57873C223.574 10.2037 225.576 16.1361 225.608 24.376C225.639 32.616 223.682 38.5835 219.736 42.2785C215.83 45.9333 210.537 47.7735 203.857 47.7988L179.497 47.8914L179.459 38.0515ZM202.739 37.963C204.099 37.9578 205.118 37.594 205.795 36.8714C206.472 36.1488 206.808 35.0275 206.802 33.5075L206.733 15.3877C206.722 12.4277 205.357 10.9529 202.637 10.9632L199.157 10.9764L199.259 37.9762L202.739 37.963ZM253.089 13.4115C253.889 13.4085 254.649 13.4856 255.37 13.6429C256.09 13.8001 256.691 13.9979 257.172 14.236L257.216 25.696C255.573 25.0222 253.812 24.6889 251.932 24.696C249.412 24.7056 247.474 25.373 246.119 26.6981C244.764 28.0233 244.092 29.9858 244.102 32.5858L244.122 37.8058L249.522 37.7853L249.559 47.6252L227.719 47.7082L227.682 37.8683L230.322 37.8582L230.27 24.1783L227.63 24.1883L227.592 14.3484L244.032 14.286L244.049 18.6659C245.162 16.9817 246.438 15.6968 247.874 14.8114C249.311 13.8859 251.049 13.4193 253.089 13.4115ZM294.182 37.6156L294.219 47.4555L278.379 47.5157L278.364 43.4357C277.489 44.7191 276.253 45.8638 274.657 46.8698C273.101 47.8758 271.183 48.3831 268.903 48.3917C265.903 48.4031 263.54 47.6121 261.814 46.0186C260.087 44.4252 259.219 42.1685 259.208 39.2485C259.179 31.6885 265.584 27.7842 278.423 27.5354C278.298 26.1759 277.775 25.2578 276.853 24.7813C275.931 24.2648 274.37 24.0108 272.17 24.0191C270.37 24.026 268.431 24.2333 266.352 24.6412C264.314 25.009 262.436 25.5161 260.718 26.1626L260.676 15.1227C262.794 14.5947 265.093 14.1659 267.571 13.8365C270.05 13.5071 272.469 13.3379 274.829 13.3289C280.789 13.3063 285.053 14.3701 287.622 16.5204C290.19 18.6706 291.482 22.0057 291.5 26.5257L291.542 37.6256L294.182 37.6156ZM278.326 33.4758C276.526 33.4826 275.127 33.728 274.129 34.2118C273.171 34.6954 272.694 35.4972 272.698 36.6172C272.7 37.2972 272.903 37.8564 273.304 38.2949C273.746 38.6932 274.347 38.891 275.107 38.8881C276.147 38.8841 276.945 38.4411 277.501 37.559C278.058 36.6768 278.333 35.4358 278.327 33.8358L278.326 33.4758ZM313.787 61.5413C310.907 61.5522 308.146 61.3627 305.505 60.9727C302.903 60.5826 300.881 60.1303 299.439 59.6158L299.402 49.7758C303.645 50.5197 307.446 50.8853 310.806 50.8725C313.086 50.8639 314.725 50.4976 315.722 49.7738C316.76 49.0899 317.275 47.7879 317.267 45.8679L317.258 43.288C316.262 44.5718 314.967 45.7167 313.371 46.7228C311.814 47.7287 310.016 48.2355 307.976 48.2433C303.896 48.2588 300.811 46.7505 298.719 43.7184C296.668 40.6862 295.631 36.3701 295.61 30.7701C295.589 25.1702 296.592 20.8463 298.621 17.7986C300.689 14.7507 303.763 13.219 307.843 13.2035C309.883 13.1958 311.685 13.6889 313.249 14.683C314.853 15.6769 316.157 16.812 317.162 18.0881L317.146 14.0082L333.586 13.9457L333.624 23.7856L330.984 23.7957L331.064 44.9155C331.086 50.7155 329.662 54.9209 326.792 57.5318C323.922 60.1828 319.587 61.5192 313.787 61.5413ZM313.756 37.5412C314.916 37.5368 315.775 37.2336 316.332 36.6314C316.93 35.9892 317.226 35.008 317.221 33.688L317.198 27.6881C317.193 26.3681 316.89 25.4092 316.287 24.8115C315.725 24.1736 314.864 23.8569 313.704 23.8613C312.544 23.8657 311.665 24.1891 311.067 24.8313C310.51 25.4335 310.233 26.3945 310.238 27.7145L310.261 33.7145C310.266 35.0345 310.55 36.0134 311.112 36.6513C311.715 37.249 312.596 37.5456 313.756 37.5412ZM353.294 48.0711C347.614 48.0927 343.168 46.6295 339.957 43.6817C336.746 40.6939 335.129 36.34 335.107 30.6201C335.086 24.9001 336.669 20.554 339.858 17.5819C343.046 14.5698 347.481 13.0529 353.161 13.0313C358.921 13.0094 363.386 14.5125 366.558 17.5405C369.729 20.5284 371.326 24.8424 371.347 30.4824C371.369 36.2023 369.785 40.5684 366.597 43.5805C363.408 46.5526 358.974 48.0495 353.294 48.0711ZM353.253 37.3912C354.413 37.3868 355.272 37.0835 355.83 36.4814C356.427 35.8391 356.724 34.858 356.719 33.538L356.696 27.538C356.691 26.218 356.387 25.2592 355.785 24.6614C355.222 24.0236 354.361 23.7069 353.201 23.7113C352.041 23.7157 351.163 24.039 350.565 24.6813C350.007 25.2834 349.731 26.2445 349.736 27.5645L349.759 33.5644C349.764 34.8844 350.047 35.8633 350.61 36.5012C351.212 37.0989 352.093 37.3956 353.253 37.3912ZM413.123 37.1637L413.16 47.0036L394.201 47.0757L394.163 37.2357L396.683 37.2262L396.646 27.3862C396.641 26.0662 396.357 25.1073 395.795 24.5094C395.232 23.8716 394.391 23.5548 393.271 23.559C390.871 23.5681 389.676 24.8527 389.686 27.4127L389.723 37.2526L392.243 37.243L392.281 47.083L373.321 47.155L373.283 37.3151L375.923 37.305L375.871 23.6251L373.231 23.6352L373.194 13.7952L389.634 13.7328L389.652 18.4127C392.518 14.7218 396.111 12.8682 400.431 12.8517C403.75 12.8391 406.234 13.8697 407.882 15.9435C409.57 18.0171 410.421 20.8738 410.435 24.5138L410.483 37.1737L413.123 37.1637Z" fill="white"/>
</svg>
